[
    {
        "start": {
            "timestamp": {
                "n": 0,
                "pts": 0,
                "pts_time": 0
            },
            "event": {
                "type": "start_marker",
                "trial_type": "animation",
                "trial_index": "trial-1-1"
            }
        },
        "end": {
            "timestamp": {
                "n": 68,
                "pts": 68,
                "pts_time": 2.26667
            },
            "event": {
                "type": "end_marker",
                "trial_type": "animation",
                "trial_index": "0",
                "time_elapsed": "3008"
            }
        }
    },
    {
        "start": {
            "timestamp": {
                "n": 69,
                "pts": 69,
                "pts_time": 2.3
            },
            "event": {
                "type": "start_marker",
                "trial_type": "disks",
                "trial_index": "disk-condition-1-1"
            }
        },
        "end": {
            "timestamp": {
                "n": 190,
                "pts": 190,
                "pts_time": 6.33333
            },
            "event": {
                "type": "end_marker",
                "trial_type": "disks",
                "trial_index": "1",
                "time_elapsed": "11079"
            }
        }
    },
    {
        "start": {
            "timestamp": {
                "n": 191,
                "pts": 191,
                "pts_time": 6.36667
            },
            "event": {
                "type": "start_marker",
                "trial_type": "animation",
                "trial_index": "trial-1-3"
            }
        },
        "end": {
            "timestamp": {
                "n": 234,
                "pts": 234,
                "pts_time": 7.8
            },
            "event": {
                "type": "end_marker",
                "trial_type": "animation",
                "trial_index": "2",
                "time_elapsed": "14082"
            }
        }
    },
    {
        "start": {
            "timestamp": {
                "n": 236,
                "pts": 236,
                "pts_time": 7.86667
            },
            "event": {
                "type": "start_marker",
                "trial_type": "disks",
                "trial_index": "disk-condition-1-1"
            }
        },
        "end": {
            "timestamp": {
                "n": 352,
                "pts": 352,
                "pts_time": 11.7333
            },
            "event": {
                "type": "end_marker",
                "trial_type": "disks",
                "trial_index": "3",
                "time_elapsed": "22141"
            }
        }
    },
    {
        "start": {
            "timestamp": {
                "n": 354,
                "pts": 354,
                "pts_time": 11.8
            },
            "event": {
                "type": "start_marker",
                "trial_type": "animation",
                "trial_index": "trial-1-5"
            }
        },
        "end": {
            "timestamp": {
                "n": 399,
                "pts": 399,
                "pts_time": 13.3
            },
            "event": {
                "type": "end_marker",
                "trial_type": "animation",
                "trial_index": "4",
                "time_elapsed": "25145"
            }
        }
    },
    {
        "start": {
            "timestamp": {
                "n": 400,
                "pts": 400,
                "pts_time": 13.3333
            },
            "event": {
                "type": "start_marker",
                "trial_type": "disks",
                "trial_index": "disk-condition-1-1"
            }
        },
        "end": {
            "timestamp": {
                "n": 517,
                "pts": 517,
                "pts_time": 17.2333
            },
            "event": {
                "type": "end_marker",
                "trial_type": "disks",
                "trial_index": "5",
                "time_elapsed": "33197"
            }
        }
    },
    {
        "start": {
            "timestamp": {
                "n": 519,
                "pts": 519,
                "pts_time": 17.3
            },
            "event": {
                "type": "start_marker",
                "trial_type": "animation",
                "trial_index": "trial-1-7"
            }
        },
        "end": {
            "timestamp": {
                "n": 556,
                "pts": 556,
                "pts_time": 18.5333
            },
            "event": {
                "type": "end_marker",
                "trial_type": "animation",
                "trial_index": "6",
                "time_elapsed": "36201"
            }
        }
    },
    {
        "start": {
            "timestamp": {
                "n": 558,
                "pts": 558,
                "pts_time": 18.6
            },
            "event": {
                "type": "start_marker",
                "trial_type": "disks",
                "trial_index": "disk-condition-1-1"
            }
        },
        "end": {
            "timestamp": {
                "n": 679,
                "pts": 679,
                "pts_time": 22.6333
            },
            "event": {
                "type": "end_marker",
                "trial_type": "disks",
                "trial_index": "7",
                "time_elapsed": "44244"
            }
        }
    },
    {
        "start": {
            "timestamp": {
                "n": 681,
                "pts": 681,
                "pts_time": 22.7
            },
            "event": {
                "type": "start_marker",
                "trial_type": "animation",
                "trial_index": "trial-1-9"
            }
        },
        "end": {
            "timestamp": {
                "n": 722,
                "pts": 722,
                "pts_time": 24.0667
            },
            "event": {
                "type": "end_marker",
                "trial_type": "animation",
                "trial_index": "8",
                "time_elapsed": "47248"
            }
        }
    },
    {
        "start": {
            "timestamp": {
                "n": 724,
                "pts": 724,
                "pts_time": 24.1333
            },
            "event": {
                "type": "start_marker",
                "trial_type": "disks",
                "trial_index": "disk-condition-1-1"
            }
        },
        "end": {
            "timestamp": {
                "n": 840,
                "pts": 840,
                "pts_time": 28
            },
            "event": {
                "type": "end_marker",
                "trial_type": "disks",
                "trial_index": "9",
                "time_elapsed": "55290"
            }
        }
    },
    {
        "start": {
            "timestamp": {
                "n": 841,
                "pts": 841,
                "pts_time": 28.0333
            },
            "event": {
                "type": "start_marker",
                "trial_type": "animation",
                "trial_index": "trial-1-11"
            }
        },
        "end": {
            "timestamp": {
                "n": 889,
                "pts": 889,
                "pts_time": 29.6333
            },
            "event": {
                "type": "end_marker",
                "trial_type": "animation",
                "trial_index": "10",
                "time_elapsed": "58293"
            }
        }
    },
    {
        "start": {
            "timestamp": {
                "n": 891,
                "pts": 891,
                "pts_time": 29.7
            },
            "event": {
                "type": "start_marker",
                "trial_type": "disks",
                "trial_index": "disk-condition-1-1"
            }
        },
        "end": {
            "timestamp": {
                "n": 992,
                "pts": 992,
                "pts_time": 33.0667
            },
            "event": {
                "type": "end_marker",
                "trial_type": "disks",
                "trial_index": "11",
                "time_elapsed": "66340"
            }
        }
    },
    {
        "start": {
            "timestamp": {
                "n": 1036,
                "pts": 1036,
                "pts_time": 34.5333
            },
            "event": {
                "type": "start_marker",
                "trial_type": "disks",
                "trial_index": "disk-condition-1-1"
            }
        },
        "end": {
            "timestamp": {
                "n": 1162,
                "pts": 1162,
                "pts_time": 38.7333
            },
            "event": {
                "type": "end_marker",
                "trial_type": "disks",
                "trial_index": "13",
                "time_elapsed": "77387"
            }
        }
    }
]